<svg width="1252" height="782" viewBox="0 0 1252 782" fill="none" xmlns="http://www.w3.org/2000/svg">
<rect x="778" y="313" width="292" height="158" rx="26" fill="#CC2B52"/>
<g filter="url(#filter0_d_27_5)">
<path fill-rule="evenodd" clip-rule="evenodd" d="M909.5 244.333C889.479 244.333 873.25 260.749 873.25 281C873.25 301.251 889.479 317.667 909.5 317.667C929.521 317.667 945.75 301.251 945.75 281C945.75 260.749 929.521 244.333 909.5 244.333ZM895 266.333C895 265.361 895.382 264.428 896.062 263.741C896.742 263.053 897.664 262.667 898.625 262.667H920.375C921.336 262.667 922.258 263.053 922.938 263.741C923.618 264.428 924 265.361 924 266.333C924 267.306 923.618 268.238 922.938 268.926C922.258 269.614 921.336 270 920.375 270H914.811C915.463 271.139 915.957 272.361 916.293 273.667H920.375C921.336 273.667 922.258 274.053 922.938 274.741C923.618 275.428 924 276.361 924 277.333C924 278.306 923.618 279.238 922.938 279.926C922.258 280.614 921.336 281 920.375 281H916.293C915.736 283.174 914.695 285.19 913.248 286.893C911.802 288.596 909.989 289.942 907.948 290.827L915.3 296.4C916.069 296.983 916.578 297.852 916.714 298.815C916.85 299.777 916.602 300.755 916.025 301.533C915.448 302.311 914.589 302.826 913.638 302.963C912.686 303.101 911.719 302.85 910.95 302.267L896.479 291.289C896.018 290.95 895.644 290.505 895.387 289.992C895.13 289.478 894.997 288.909 895 288.333C895 287.391 895.373 286.485 895.979 285.829C896.318 285.462 896.727 285.17 897.183 284.97C897.638 284.77 898.129 284.667 898.625 284.667H902.25C903.523 284.667 904.773 284.328 905.875 283.684C906.977 283.041 907.892 282.115 908.528 281H898.625C897.664 281 896.742 280.614 896.062 279.926C895.382 279.238 895 278.306 895 277.333C895 276.361 895.382 275.428 896.062 274.741C896.742 274.053 897.664 273.667 898.625 273.667H908.528C907.892 272.552 906.977 271.626 905.875 270.983C904.773 270.339 903.523 270 902.25 270H898.625C897.664 270 896.742 269.614 896.062 268.926C895.382 268.238 895 267.306 895 266.333Z" fill="#F3BA00"/>
<path d="M909.5 245.333C928.958 245.333 944.75 261.291 944.75 281C944.75 300.71 928.958 316.666 909.5 316.666C890.042 316.666 874.25 300.71 874.25 281C874.25 261.291 890.042 245.333 909.5 245.333ZM898.395 261.672C897.248 261.73 896.163 262.216 895.351 263.037C894.485 263.913 894 265.099 894 266.333L894.006 266.564C894.062 267.714 894.539 268.808 895.351 269.629C896.217 270.506 897.395 271 898.625 271H902.25C903.345 271 904.421 271.292 905.37 271.846C905.767 272.078 906.135 272.355 906.471 272.666H898.625C897.395 272.666 896.217 273.161 895.351 274.037C894.485 274.913 894 276.099 894 277.333L894.006 277.564C894.062 278.714 894.539 279.808 895.351 280.629C896.217 281.506 897.395 282 898.625 282H906.471C906.135 282.312 905.767 282.589 905.37 282.821C904.421 283.375 903.345 283.666 902.25 283.666H898.625L898.387 283.673C897.833 283.702 897.289 283.831 896.78 284.054C896.271 284.278 895.808 284.592 895.41 284.98L895.244 285.15V285.151C894.474 285.985 894.001 287.13 894 288.328C893.996 289.061 894.165 289.784 894.492 290.439C894.818 291.089 895.292 291.653 895.875 292.084V292.085L910.346 303.064C911.327 303.808 912.563 304.128 913.78 303.952C914.998 303.777 916.094 303.119 916.828 302.129C917.562 301.139 917.877 299.897 917.704 298.675C917.542 297.53 916.964 296.487 916.084 295.747L915.904 295.603L909.833 291C911.411 290.104 912.827 288.935 914.011 287.54C915.387 285.919 916.419 284.033 917.048 282H920.375C921.605 282 922.783 281.506 923.649 280.629C924.515 279.753 925 278.567 925 277.333C925 276.099 924.515 274.913 923.649 274.037C922.783 273.161 921.605 272.666 920.375 272.666H917.047C916.871 272.096 916.666 271.541 916.43 271H920.375C921.605 271 922.783 270.506 923.649 269.629C924.515 268.753 925 267.567 925 266.333C925 265.099 924.515 263.913 923.649 263.037C922.783 262.161 921.605 261.666 920.375 261.666H898.625L898.395 261.672Z" stroke="#BF9406" stroke-width="2"/>
</g>
<path d="M801.5 313L764 323L799 322L801.5 313Z" fill="#CC2B52"/>
<path d="M1022 478L1053 469.5L1020.5 470L1022 478Z" fill="#CC2B52"/>
<rect x="749.75" y="321.75" width="290.5" height="156.5" rx="25.25" fill="#CC2B52" stroke="#B0153B" stroke-width="1.5"/>
<path d="M875.952 316.012C875.984 316.004 876.017 316 876.049 316H957.751C958.222 316 958.305 316.674 957.848 316.788L953.048 317.988C953.016 317.996 952.983 318 952.951 318H871.249C870.778 318 870.695 317.326 871.152 317.212L875.952 316.012Z" fill="#750924"/>
<path d="M826.71 335V421.881C826.71 434.889 826.576 443.266 826.308 447.014C826.04 450.707 824.808 454.053 822.61 457.051C820.466 460.048 817.518 462.136 813.767 463.314C810.068 464.438 804.467 465 796.964 465H780V442.276C782.037 442.437 783.511 442.517 784.422 442.517C786.834 442.517 788.736 441.928 790.13 440.75C791.523 439.573 792.327 438.127 792.542 436.414C792.756 434.701 792.863 431.383 792.863 426.458V335H826.71Z" fill="white"/>
<path d="M898.263 335L917.639 465H882.988L881.3 441.634H869.16L867.15 465H832.097L849.302 335H898.263ZM880.335 418.589C878.62 403.868 876.905 385.694 875.189 364.067C871.759 388.906 869.615 407.079 868.758 418.589H880.335Z" fill="white"/>
<path d="M923.427 335H947.385C963.358 335 974.157 335.616 979.785 336.847C985.467 338.078 990.076 341.236 993.613 346.322C997.204 351.354 999 359.41 999 370.491C999 380.608 997.74 387.407 995.221 390.886C992.702 394.366 987.744 396.454 980.348 397.149C987.048 398.809 991.55 401.03 993.855 403.814C996.159 406.598 997.58 409.167 998.116 411.523C998.705 413.824 999 420.221 999 430.713V465H967.565V421.8C967.565 414.841 967.002 410.532 965.877 408.873C964.805 407.213 961.937 406.384 957.274 406.384V465H923.427V335ZM957.274 357.242V386.149C961.08 386.149 963.733 385.64 965.233 384.623C966.788 383.553 967.565 380.153 967.565 374.426V367.279C967.565 363.157 966.815 360.454 965.314 359.169C963.867 357.884 961.187 357.242 957.274 357.242Z" fill="white"/>
<path d="M177 321H216.375C228.812 321 238.219 321.969 244.594 323.906C251.031 325.844 256.219 329.781 260.156 335.719C264.094 341.594 266.062 351.094 266.062 364.219C266.062 373.094 264.656 379.281 261.844 382.781C259.094 386.281 253.625 388.969 245.438 390.844C254.562 392.906 260.75 396.344 264 401.156C267.25 405.906 268.875 413.219 268.875 423.094V437.156C268.875 447.406 267.688 455 265.312 459.938C263 464.875 259.281 468.25 254.156 470.062C249.031 471.875 238.531 472.781 222.656 472.781H177V321ZM216.469 346.969V380.719C218.156 380.656 219.469 380.625 220.406 380.625C224.281 380.625 226.75 379.688 227.812 377.812C228.875 375.875 229.406 370.406 229.406 361.406C229.406 356.656 228.969 353.344 228.094 351.469C227.219 349.531 226.062 348.312 224.625 347.812C223.25 347.312 220.531 347.031 216.469 346.969ZM216.469 404.344V446.812C222.031 446.625 225.562 445.75 227.062 444.188C228.625 442.625 229.406 438.781 229.406 432.656V418.5C229.406 412 228.719 408.062 227.344 406.688C225.969 405.312 222.344 404.531 216.469 404.344Z" fill="black"/>
<path d="M315.844 396.562H280.312V388.219C280.312 378.594 281.406 371.188 283.594 366C285.844 360.75 290.312 356.125 297 352.125C303.688 348.125 312.375 346.125 323.062 346.125C335.875 346.125 345.531 348.406 352.031 352.969C358.531 357.469 362.438 363.031 363.75 369.656C365.062 376.219 365.719 389.781 365.719 410.344V472.781H328.875V461.719C326.562 466.156 323.562 469.5 319.875 471.75C316.25 473.938 311.906 475.031 306.844 475.031C300.219 475.031 294.125 473.188 288.562 469.5C283.062 465.75 280.312 457.594 280.312 445.031V434.812C280.312 425.5 281.781 419.156 284.719 415.781C287.656 412.406 294.938 408.469 306.562 403.969C319 399.094 325.656 395.812 326.531 394.125C327.406 392.438 327.844 389 327.844 383.812C327.844 377.312 327.344 373.094 326.344 371.156C325.406 369.156 323.812 368.156 321.562 368.156C319 368.156 317.406 369 316.781 370.688C316.156 372.312 315.844 376.594 315.844 383.531V396.562ZM327.844 413.625C321.781 418.062 318.25 421.781 317.25 424.781C316.312 427.781 315.844 432.094 315.844 437.719C315.844 444.156 316.25 448.312 317.062 450.188C317.938 452.062 319.625 453 322.125 453C324.5 453 326.031 452.281 326.719 450.844C327.469 449.344 327.844 445.469 327.844 439.219V413.625Z" fill="black"/>
<path d="M462.469 395.344H426.75V381C426.75 376 426.344 372.625 425.531 370.875C424.719 369.062 423.219 368.156 421.031 368.156C418.844 368.156 417.375 368.938 416.625 370.5C415.875 372.062 415.5 375.562 415.5 381V439.688C415.5 444.125 416.062 447.469 417.188 449.719C418.312 451.906 419.969 453 422.156 453C424.719 453 426.438 451.844 427.312 449.531C428.25 447.219 428.719 442.844 428.719 436.406V421.594H462.469C462.406 431.531 462.031 439 461.344 444C460.719 448.938 458.625 454.031 455.062 459.281C451.562 464.469 446.969 468.406 441.281 471.094C435.594 473.719 428.562 475.031 420.188 475.031C409.5 475.031 401.031 473.219 394.781 469.594C388.531 465.906 384.094 460.781 381.469 454.219C378.906 447.594 377.625 438.219 377.625 426.094V390.75C377.625 380.188 378.688 372.219 380.812 366.844C382.938 361.469 387.469 356.688 394.406 352.5C401.344 348.25 409.781 346.125 419.719 346.125C429.594 346.125 438.031 348.219 445.031 352.406C452.031 356.594 456.688 361.875 459 368.25C461.312 374.625 462.469 383.656 462.469 395.344Z" fill="black"/>
<path d="M511.688 321V355.125C514.938 352.125 518.438 349.875 522.188 348.375C526 346.875 530.062 346.125 534.375 346.125C541 346.125 546.625 347.812 551.25 351.188C555.938 354.562 558.781 358.469 559.781 362.906C560.844 367.281 561.375 375.312 561.375 387V472.781H523.5V385.219C523.5 377.969 523.125 373.312 522.375 371.25C521.688 369.188 520.094 368.156 517.594 368.156C515.281 368.156 513.719 369.219 512.906 371.344C512.094 373.469 511.688 377.688 511.688 384V472.781H473.812V321H511.688Z" fill="black"/>
<path d="M608.344 396.562H572.812V388.219C572.812 378.594 573.906 371.188 576.094 366C578.344 360.75 582.812 356.125 589.5 352.125C596.188 348.125 604.875 346.125 615.562 346.125C628.375 346.125 638.031 348.406 644.531 352.969C651.031 357.469 654.938 363.031 656.25 369.656C657.562 376.219 658.219 389.781 658.219 410.344V472.781H621.375V461.719C619.062 466.156 616.062 469.5 612.375 471.75C608.75 473.938 604.406 475.031 599.344 475.031C592.719 475.031 586.625 473.188 581.062 469.5C575.562 465.75 572.812 457.594 572.812 445.031V434.812C572.812 425.5 574.281 419.156 577.219 415.781C580.156 412.406 587.438 408.469 599.062 403.969C611.5 399.094 618.156 395.812 619.031 394.125C619.906 392.438 620.344 389 620.344 383.812C620.344 377.312 619.844 373.094 618.844 371.156C617.906 369.156 616.312 368.156 614.062 368.156C611.5 368.156 609.906 369 609.281 370.688C608.656 372.312 608.344 376.594 608.344 383.531V396.562ZM620.344 413.625C614.281 418.062 610.75 421.781 609.75 424.781C608.812 427.781 608.344 432.094 608.344 437.719C608.344 444.156 608.75 448.312 609.562 450.188C610.438 452.062 612.125 453 614.625 453C617 453 618.531 452.281 619.219 450.844C619.969 449.344 620.344 445.469 620.344 439.219V413.625Z" fill="black"/>
<path d="M711.188 331.781V351.375H721.406V371.062H711.188V437.625C711.188 445.812 711.594 450.375 712.406 451.312C713.281 452.25 716.812 452.719 723 452.719V472.781H707.719C699.094 472.781 692.938 472.438 689.25 471.75C685.562 471 682.312 469.344 679.5 466.781C676.688 464.156 674.938 461.188 674.25 457.875C673.562 454.5 673.219 446.625 673.219 434.25V371.062H665.062V351.375H673.219V331.781H711.188Z" fill="black"/>
<defs>
<filter id="filter0_d_27_5" x="866.95" y="237.033" width="85.1" height="85.9333" filterUnits="userSpaceOnUse" color-interpolation-filters="sRGB">
<feFlood flood-opacity="0" result="BackgroundImageFix"/>
<feColorMatrix in="SourceAlpha" type="matrix" values="0 0 0 0 0 0 0 0 0 0 0 0 0 0 0 0 0 0 127 0" result="hardAlpha"/>
<feOffset dy="-1"/>
<feGaussianBlur stdDeviation="3.15"/>
<feComposite in2="hardAlpha" operator="out"/>
<feColorMatrix type="matrix" values="0 0 0 0 0 0 0 0 0 0 0 0 0 0 0 0 0 0 0.11 0"/>
<feBlend mode="normal" in2="BackgroundImageFix" result="effect1_dropShadow_27_5"/>
<feBlend mode="normal" in="SourceGraphic" in2="effect1_dropShadow_27_5" result="shape"/>
</filter>
</defs>
</svg>
