<svg version="1.1" id="Layer_1" xmlns="http://www.w3.org/2000/svg" xmlns:xlink="http://www.w3.org/1999/xlink" x="0px" y="0px"
	 width="100%" viewBox="0 0 512 512" enable-background="new 0 0 512 512" xml:space="preserve">
<path fill="#000000" opacity="1.000000" stroke="none" 
	d="
M281.000000,513.000000 
	C188.689072,513.000000 96.878120,512.979065 5.067310,513.085388 
	C1.791582,513.089172 0.894854,512.631042 0.897353,509.069092 
	C1.015156,341.110138 1.016914,173.151123 0.891462,5.192201 
	C0.888652,1.430239 1.854974,0.913867 5.305854,0.915846 
	C173.098206,1.012060 340.890594,1.011591 508.682953,0.918413 
	C512.103516,0.916513 513.113708,1.388016 513.110779,5.180982 
	C512.982605,173.139908 512.985046,341.098938 513.101318,509.057892 
	C513.103760,512.596985 512.243835,513.092468 508.943878,513.087524 
	C433.129364,512.973999 357.314667,513.000000 281.000000,513.000000 
z"/>
<path fill="#D75134" opacity="1.000000" stroke="none" 
	d="
M134.563568,221.264908 
	C137.794998,217.867264 140.798279,214.773758 143.948318,211.379898 
	C144.399475,210.663864 144.887909,210.213638 145.302032,210.354599 
	C151.920532,212.607483 155.848419,208.549652 159.714661,204.297836 
	C160.380936,203.565125 161.045670,202.805527 161.823715,202.204010 
	C166.971909,198.223770 169.951187,193.330368 168.851776,186.314148 
	C172.009750,183.280945 174.905258,180.481369 177.946854,177.381622 
	C178.569290,176.585052 179.188278,176.065887 179.825623,176.273819 
	C185.861603,178.243073 189.414780,174.542221 193.159912,170.784561 
	C220.562775,143.289932 248.190094,116.016350 275.355164,88.289513 
	C281.134094,82.391060 287.167145,80.524124 294.992188,81.286461 
	C309.558868,82.705566 324.199799,83.238655 338.797394,84.274673 
	C351.570404,85.181198 364.411255,85.260994 377.114227,87.031853 
	C382.813141,87.826317 383.378448,88.930595 381.451630,94.264755 
	C379.581970,99.440582 377.730774,104.617973 376.830444,110.069992 
	C376.345428,113.006821 374.634644,115.196114 372.805206,117.404915 
	C366.605225,124.890503 367.846649,136.249359 375.390717,141.807129 
	C383.284180,147.622238 393.941132,145.880203 399.659607,137.839951 
	C405.148773,130.122116 403.087341,118.588028 394.578705,113.929810 
	C388.224243,110.450943 387.252502,107.423378 390.521698,99.974220 
	C390.990387,98.906303 391.454224,97.836090 391.944489,96.777969 
	C395.789612,88.479294 397.567413,87.472267 406.696259,88.763847 
	C410.183167,89.257179 413.686737,88.974083 417.168701,89.265297 
	C422.225677,89.688248 424.477814,91.738838 424.701019,96.796188 
	C425.471283,114.250435 426.882843,131.664246 427.940094,149.099365 
	C429.037354,167.194366 430.180450,185.290909 431.500671,203.374496 
	C431.997101,210.174164 432.389771,216.988434 432.847931,223.794388 
	C433.184052,228.787231 431.722504,232.975037 427.855743,236.256775 
	C427.096619,236.901062 426.438934,237.665833 425.732117,238.372681 
	C348.098114,316.007141 270.464447,393.641968 192.828583,471.274536 
	C184.648300,479.454437 184.353531,479.455719 176.255951,471.358917 
	C131.605316,426.712524 86.956291,382.064514 42.310795,337.412994 
	C34.628712,329.729889 34.628719,329.272064 42.333363,321.565063 
	C70.955872,292.933777 99.538658,264.262482 128.265305,235.736038 
	C132.337219,231.692474 135.735779,227.766647 134.563568,221.264908 
z"/>
<path fill="#111436" opacity="1.000000" stroke="none" 
	d="
M134.479721,220.791870 
	C137.818344,227.750946 137.664078,228.657333 132.290710,234.032806 
	C101.778503,264.556824 71.294067,295.108856 40.681454,325.531921 
	C37.812492,328.383118 37.119572,329.822998 40.461304,333.144379 
	C87.382660,379.779633 134.156204,426.564026 180.814560,473.462524 
	C183.965851,476.630035 185.395721,476.444946 188.423431,473.409943 
	C267.980957,393.660767 347.632202,314.005066 427.357880,234.423965 
	C430.215088,231.571945 431.343689,228.822266 431.068176,224.815125 
	C428.714813,190.586777 426.526337,156.347046 424.321533,122.108589 
	C423.764893,113.464920 423.195679,104.818108 422.897980,96.163597 
	C422.775635,92.606689 421.505371,91.145836 417.868042,91.082436 
	C412.211731,90.983849 406.554596,90.538620 400.915192,90.042725 
	C398.404297,89.821938 396.831696,90.562836 395.837708,92.917183 
	C394.804047,95.365486 393.378235,97.652512 392.404907,100.120850 
	C391.371887,102.740562 389.927704,105.514595 390.014313,108.177277 
	C390.116943,111.331703 394.041351,110.886543 396.118591,112.294670 
	C405.115723,118.393707 407.370697,130.737076 400.851990,139.592056 
	C394.503204,148.216110 382.303711,149.752029 373.793365,142.998672 
	C365.489838,136.409439 364.290527,123.712334 371.542877,115.889832 
	C373.708435,113.554031 374.854614,111.254196 375.333435,108.129799 
	C376.318604,101.701286 378.741730,95.659523 381.698456,89.445641 
	C374.464569,87.832336 367.352631,88.006432 360.337311,87.523109 
	C336.410309,85.874687 312.461395,84.544586 288.534821,82.890343 
	C284.816132,82.633240 282.381470,83.836205 279.835693,86.395905 
	C250.458694,115.933701 220.977890,145.368271 191.514481,174.820084 
	C186.550461,179.782166 185.055588,180.022705 178.463989,177.084274 
	C175.845474,171.727554 177.588272,167.750290 181.618835,163.751434 
	C211.787033,133.820404 241.919510,103.849915 271.701538,73.536469 
	C276.730865,68.417404 282.089935,67.039207 288.317200,68.227798 
	C295.068542,69.516434 301.877777,69.128365 308.641510,69.801949 
	C322.000488,71.132332 335.479889,71.203896 348.893066,72.054924 
	C361.291870,72.841583 373.670380,73.952164 386.054932,74.955681 
	C388.386963,75.144638 390.235535,74.599091 391.686768,72.578453 
	C404.566681,54.644974 420.457489,40.002041 439.595642,28.927687 
	C450.648254,22.532036 462.398132,18.968075 475.309662,20.018333 
	C484.419128,20.759321 493.159210,29.589132 494.001923,38.688229 
	C495.169830,51.297852 491.613556,62.830338 485.568665,73.556969 
	C474.642883,92.944733 459.887238,109.041260 441.816620,122.021126 
	C438.966766,124.068123 438.867218,126.547523 439.095001,129.448517 
	C439.743378,137.705643 440.337921,145.967072 441.005157,154.222626 
	C442.099945,167.768753 442.348358,181.370117 443.867981,194.893372 
	C444.515015,200.651138 444.281097,206.480331 444.771881,212.290527 
	C445.258514,218.052094 445.529083,223.877838 446.048920,229.656708 
	C446.493347,234.597092 444.534119,238.098633 441.090118,241.518082 
	C413.298340,269.112030 385.649536,296.849945 357.956268,324.543091 
	C303.158936,379.340149 248.361679,434.137329 193.562897,488.932953 
	C186.439545,496.055878 182.576965,496.077881 175.517258,489.018951 
	C125.195450,438.702454 74.875519,388.384094 24.559179,338.062134 
	C18.150219,331.652466 18.112825,327.398285 24.430803,321.077972 
	C57.067486,288.429382 89.732338,255.808929 122.328217,223.119659 
	C125.851280,219.586533 129.378372,217.477234 134.479721,220.791870 
z"/>
<path fill="#121436" opacity="1.000000" stroke="none" 
	d="
M168.718628,186.004456 
	C172.851761,192.878891 169.727554,197.580536 164.537704,201.887360 
	C161.731522,204.216080 159.219528,206.928101 156.751572,209.628754 
	C153.146408,213.573776 149.255859,214.202652 144.463013,211.107010 
	C141.918808,206.439468 142.821625,202.470825 146.519196,198.949326 
	C149.998779,195.635422 153.446625,192.273712 156.701202,188.742065 
	C160.022842,185.137665 163.765823,184.047287 168.718628,186.004456 
z"/>
<path fill="#EFEFFA" opacity="1.000000" stroke="none" 
	d="
M361.508514,258.746033 
	C356.798859,263.673126 352.251556,268.281067 347.386597,273.112854 
	C339.791351,272.936859 335.344849,277.492584 330.674255,282.178680 
	C284.575134,328.430573 238.370468,374.577362 192.192200,420.750366 
	C184.637772,428.303925 184.360840,428.302277 176.794632,420.737579 
	C148.874496,392.822906 120.958130,364.904419 93.042610,336.985107 
	C91.747292,335.689575 90.451508,334.395599 89.230003,333.026611 
	C87.095337,330.634125 87.103218,328.295746 89.256889,325.921356 
	C90.489212,324.562775 91.786873,323.270264 93.082329,321.974762 
	C151.036133,264.018250 208.990433,206.062271 266.947998,148.109543 
	C274.342041,140.716141 274.653107,140.713486 281.959778,148.018021 
	C309.999084,176.049118 338.032257,204.086365 366.066040,232.123016 
	C367.243744,233.300827 368.407776,234.491272 369.546844,235.707932 
	C371.884979,238.205399 371.954651,240.677200 369.607758,243.204651 
	C368.927643,243.937057 368.310333,244.744003 367.542542,245.374939 
	C363.420349,248.762375 361.184692,252.976685 361.508514,258.746033 
z"/>
<path fill="#131638" opacity="1.000000" stroke="none" 
	d="
M361.703796,259.264099 
	C358.647949,254.691620 359.402374,250.982910 363.193604,247.541168 
	C365.891937,245.091522 370.191010,242.298553 370.221619,239.618271 
	C370.251312,237.015305 365.800751,234.309601 363.229980,231.736572 
	C334.607666,203.089005 305.952362,174.474350 277.367889,145.789093 
	C275.362305,143.776413 274.252014,142.884613 271.686310,145.457138 
	C211.079636,206.224442 150.364761,266.883820 89.675293,327.568573 
	C89.097290,328.146545 88.594810,328.800049 87.946068,329.545929 
	C119.501770,361.085999 151.007843,392.500763 182.373901,424.054779 
	C185.221039,426.919037 186.192459,424.546112 187.653946,423.085449 
	C236.688522,374.077667 285.719116,325.065857 334.695068,275.999512 
	C338.148102,272.540100 341.522064,270.025421 346.756287,273.210571 
	C350.280304,277.826477 349.161652,281.499969 345.419861,285.234100 
	C293.986572,336.562225 242.627411,387.964630 191.234512,439.333221 
	C186.055923,444.509369 183.031265,444.457581 177.737595,439.167053 
	C143.434418,404.884003 109.141434,370.590729 74.857964,336.287933 
	C69.416138,330.843079 69.450607,327.999451 74.997429,322.451569 
	C139.099472,258.337311 203.207596,194.229172 267.319916,130.125198 
	C273.029877,124.415977 275.760529,124.415466 281.512939,130.164795 
	C315.579468,164.213165 349.636566,198.270950 383.686646,232.335785 
	C389.635529,238.287231 389.616730,240.944901 383.681854,246.902893 
	C380.035828,250.563156 376.320312,254.155777 372.732330,257.871796 
	C369.535645,261.182556 366.104919,262.189545 361.703796,259.264099 
z"/>
<path fill="#131436" opacity="1.000000" stroke="none" 
	d="
M404.766510,189.379562 
	C404.400024,183.436188 403.998932,177.960709 403.766022,172.478073 
	C403.584717,168.210709 405.515320,165.347244 409.950134,164.940735 
	C414.373901,164.535248 417.118652,167.049225 417.483215,171.196381 
	C418.356720,181.132751 418.918518,191.103256 419.312988,201.071594 
	C419.463593,204.877762 417.090240,207.433380 413.308777,207.857452 
	C409.312500,208.305649 406.379486,206.310028 405.743164,202.263596 
	C405.100311,198.175720 405.091125,193.988235 404.766510,189.379562 
z"/>
<path fill="#000000" opacity="1.000000" stroke="none" 
	d="
M462.264343,81.258209 
	C455.328918,90.426102 447.828247,98.529129 438.654175,105.174995 
	C436.732849,99.656799 437.019501,94.061958 436.983002,88.486824 
	C436.929474,80.315102 433.634277,77.018944 425.382019,77.030106 
	C419.893951,77.037529 414.430756,77.021080 408.680939,75.515213 
	C412.834717,70.048218 417.032745,64.755043 422.192993,60.424252 
	C429.553070,54.247265 436.829163,47.966774 445.237701,43.100903 
	C452.832336,38.706020 460.783600,35.616520 469.434113,34.371933 
	C475.640808,33.478947 480.118896,38.603668 479.351227,45.415146 
	C478.021881,57.210388 472.371033,67.117767 465.817200,76.635201 
	C464.783478,78.136330 463.613312,79.543472 462.264343,81.258209 
z"/>
<path fill="#AD422D" opacity="1.000000" stroke="none" 
	d="
M382.254700,131.703720 
	C380.125793,128.168915 380.318207,125.325256 384.025116,123.697342 
	C387.032410,122.376678 389.066895,123.920677 390.339752,126.655106 
	C391.225159,128.557205 390.647369,130.277222 389.256866,131.607651 
	C387.196716,133.578781 384.876495,133.627121 382.254700,131.703720 
z"/>
<path fill="#13173A" opacity="1.000000" stroke="none" 
	d="
M269.188660,306.521118 
	C255.661301,304.730743 246.796021,295.936798 245.677414,283.567596 
	C244.630661,271.992767 251.755157,261.429779 262.942322,257.970123 
	C276.573151,253.754745 291.054474,262.147247 294.081635,276.016602 
	C297.167480,290.155060 287.626526,304.202972 273.576172,306.184998 
	C272.259338,306.370758 270.925842,306.438263 269.188660,306.521118 
z"/>
<path fill="#14183A" opacity="1.000000" stroke="none" 
	d="
M217.775879,243.384857 
	C213.532181,233.492203 218.649048,227.848297 226.353577,222.764236 
	C228.147507,232.556732 229.935654,242.129166 231.650513,251.714691 
	C236.479980,278.710052 241.192490,305.726929 246.195145,332.690033 
	C246.857010,336.257355 246.288574,338.559204 243.589630,340.903290 
	C241.372406,342.829010 239.703171,345.385712 237.791016,347.662720 
	C237.285553,347.434082 236.780106,347.205444 236.274643,346.976807 
	C230.134521,312.587830 223.994400,278.198853 217.775879,243.384857 
z"/>
<path fill="#131739" opacity="1.000000" stroke="none" 
	d="
M206.957901,268.958618 
	C215.817139,275.922913 218.968628,284.732758 216.424973,295.249481 
	C214.185089,304.510345 207.994308,310.166199 198.661407,311.998688 
	C187.331848,314.223206 176.647156,308.841400 171.691757,298.741058 
	C167.062103,289.304657 168.989609,277.518555 176.277267,270.702118 
	C184.372528,263.130280 196.140900,262.379211 206.957901,268.958618 
z"/>
<path fill="#EBEBF6" opacity="1.000000" stroke="none" 
	d="
M262.128479,271.995911 
	C270.463104,268.471863 279.903595,273.784180 281.109558,282.290802 
	C281.905762,287.906769 278.460327,292.627228 273.003113,293.397125 
	C268.101501,294.088654 262.167297,290.496399 259.355255,285.135437 
	C256.850220,280.359741 257.538330,276.726837 262.128479,271.995911 
z"/>
<path fill="#EBEBF7" opacity="1.000000" stroke="none" 
	d="
M204.812103,292.498108 
	C201.743500,299.385712 197.144394,301.498993 191.234329,299.088989 
	C184.539246,296.358856 180.233200,288.835846 182.149582,283.217072 
	C183.840973,278.257904 189.601257,275.697510 194.858200,277.568268 
	C200.944962,279.734344 204.770874,285.281097 204.812103,292.498108 
z"/>
</svg>